<svg id="Capa_1" enable-background="new 0 0 512 512" height="512" viewBox="0 0 512 512" width="512" xmlns="http://www.w3.org/2000/svg"><g fill="rgb(0, 126, 230)"><path d="m511.999 170.16c-.005-2.501-1.256-4.836-3.339-6.224l-47.63-31.753v-30.064c0-17.794-14.477-32.27-32.271-32.27h-61.226l-90.87-60.582c-12.553-8.368-28.773-8.368-41.326 0l-90.871 60.581h-21.226c-4.143 0-7.5 3.358-7.5 7.5s3.357 7.5 7.5 7.5h305.52c9.523 0 17.271 7.747 17.271 17.27v98.022l-190.031 126.683-190.03-126.682v-98.022c0-9.523 7.747-17.27 17.271-17.27h10c4.143 0 7.5-3.358 7.5-7.5s-3.357-7.5-7.5-7.5h-10c-17.794 0-32.271 14.476-32.271 32.27v30.064l-47.63 31.753c-2.082 1.388-3.333 3.723-3.339 6.224 0 .003-.001.006-.001.009v298.36c0 22.321 18.159 40.48 40.48 40.48h373.66c4.143 0 7.5-3.358 7.5-7.5s-3.357-7.5-7.5-7.5h-373.66c-14.05 0-25.48-11.43-25.48-25.48v-284.339l236.84 157.887c1.26.839 2.71 1.259 4.16 1.259s2.9-.42 4.16-1.259l236.84-157.887v284.339c0 14.05-11.431 25.48-25.48 25.48h-27.38c-4.143 0-7.5 3.358-7.5 7.5s3.357 7.5 7.5 7.5h27.38c22.321 0 40.48-18.159 40.48-40.48v-298.36c0-.003-.001-.006-.001-.009zm-268.342-148.412c7.497-4.999 17.187-4.999 24.686 0l72.15 48.101h-168.986zm-192.687 128.462v39.932l-29.949-19.965zm410.06 39.931v-39.931l29.949 19.966z"/><path d="m449.13 464.597c2.298-3.447 1.366-8.103-2.08-10.401l-153.29-102.2c-3.446-2.298-8.103-1.366-10.4 2.08-2.298 3.447-1.366 8.103 2.08 10.401l153.29 102.2c1.278.853 2.724 1.261 4.153 1.261 2.424-.001 4.802-1.174 6.247-3.341z"/><path d="m69.117 467.937c1.43 0 2.875-.408 4.153-1.261l153.29-102.2c3.446-2.298 4.378-6.954 2.08-10.401-2.297-3.446-6.954-4.377-10.4-2.08l-153.29 102.2c-3.446 2.298-4.378 6.954-2.08 10.401 1.445 2.168 3.823 3.341 6.247 3.341z"/><path d="m51.371 303.634c3.339 0 5.074 1.912 8.831 6.972 4.083 5.498 9.675 13.028 20.873 13.028 11.199 0 16.792-7.53 20.875-13.028 3.759-5.06 5.494-6.972 8.834-6.972s5.074 1.912 8.832 6.972c4.084 5.498 9.677 13.028 20.876 13.028 4.143 0 7.5-3.358 7.5-7.5s-3.357-7.5-7.5-7.5c-3.34 0-5.075-1.912-8.834-6.972-4.083-5.498-9.676-13.028-20.874-13.028-11.199 0-16.792 7.53-20.875 13.028-3.759 5.06-5.494 6.972-8.834 6.972-3.339 0-5.073-1.912-8.83-6.971-4.083-5.499-9.676-13.029-20.874-13.029-4.143 0-7.5 3.358-7.5 7.5s3.358 7.5 7.5 7.5z"/><path d="m51.371 337.577c3.339 0 5.074 1.912 8.831 6.972 4.083 5.498 9.675 13.028 20.873 13.028 11.199 0 16.792-7.53 20.875-13.028 3.759-5.06 5.494-6.972 8.834-6.972s5.074 1.912 8.832 6.972c4.084 5.498 9.677 13.028 20.876 13.028 4.143 0 7.5-3.358 7.5-7.5s-3.357-7.5-7.5-7.5c-3.34 0-5.075-1.912-8.834-6.972-4.083-5.498-9.676-13.028-20.874-13.028-11.199 0-16.792 7.53-20.875 13.028-3.759 5.06-5.494 6.972-8.834 6.972-3.339 0-5.073-1.912-8.83-6.971-4.083-5.499-9.676-13.029-20.874-13.029-4.143 0-7.5 3.358-7.5 7.5s3.358 7.5 7.5 7.5z"/><path d="m331.154 150.023c4.143 0 7.5-3.358 7.5-7.5s-3.357-7.5-7.5-7.5h-150.308c-4.143 0-7.5 3.358-7.5 7.5s3.357 7.5 7.5 7.5z"/><path d="m133.89 182.191c0 4.142 3.357 7.5 7.5 7.5h229.22c4.143 0 7.5-3.358 7.5-7.5s-3.357-7.5-7.5-7.5h-229.22c-4.143 0-7.5 3.358-7.5 7.5z"/><path d="m141.39 225.291h229.22c4.143 0 7.5-3.358 7.5-7.5s-3.357-7.5-7.5-7.5h-229.22c-4.143 0-7.5 3.358-7.5 7.5s3.357 7.5 7.5 7.5z"/></g></svg>