<svg height="512" width="512" xmlns="http://www.w3.org/2000/svg"><g fill="#007EE6"><path d="M511.999 170.16a7.496 7.496 0 00-3.339-6.224l-47.63-31.753v-30.064c0-17.794-14.477-32.27-32.271-32.27h-61.226l-90.87-60.582a37.153 37.153 0 00-41.326 0l-90.871 60.581H123.24c-4.143 0-7.5 3.358-7.5 7.5s3.357 7.5 7.5 7.5h305.52c9.523 0 17.271 7.747 17.271 17.27v98.022L256 326.823 65.97 200.141v-98.022c0-9.523 7.747-17.27 17.271-17.27h10c4.143 0 7.5-3.358 7.5-7.5s-3.357-7.5-7.5-7.5h-10c-17.794 0-32.271 14.476-32.271 32.27v30.064L3.34 163.936a7.501 7.501 0 00-3.339 6.224l-.001.009v298.36c0 22.321 18.159 40.48 40.48 40.48h373.66c4.143 0 7.5-3.358 7.5-7.5s-3.357-7.5-7.5-7.5H40.48c-14.05 0-25.48-11.43-25.48-25.48V184.19l236.84 157.887a7.499 7.499 0 008.32 0L497 184.19v284.339c0 14.05-11.431 25.48-25.48 25.48h-27.38c-4.143 0-7.5 3.358-7.5 7.5s3.357 7.5 7.5 7.5h27.38c22.321 0 40.48-18.159 40.48-40.48v-298.36l-.001-.009zM243.657 21.748a22.192 22.192 0 0124.686 0l72.15 48.101H171.507zM50.97 150.21v39.932l-29.949-19.965zm410.06 39.931V150.21l29.949 19.966z"/><path d="M449.13 464.597a7.5 7.5 0 00-2.08-10.401l-153.29-102.2a7.5 7.5 0 00-8.32 12.481l153.29 102.2a7.497 7.497 0 0010.4-2.08zm-380.013 3.34c1.43 0 2.875-.408 4.153-1.261l153.29-102.2a7.5 7.5 0 00-8.32-12.481l-153.29 102.2a7.5 7.5 0 004.167 13.742zM51.371 303.634c3.339 0 5.074 1.912 8.831 6.972 4.083 5.498 9.675 13.028 20.873 13.028 11.199 0 16.792-7.53 20.875-13.028 3.759-5.06 5.494-6.972 8.834-6.972s5.074 1.912 8.832 6.972c4.084 5.498 9.677 13.028 20.876 13.028 4.143 0 7.5-3.358 7.5-7.5s-3.357-7.5-7.5-7.5c-3.34 0-5.075-1.912-8.834-6.972-4.083-5.498-9.676-13.028-20.874-13.028-11.199 0-16.792 7.53-20.875 13.028-3.759 5.06-5.494 6.972-8.834 6.972-3.339 0-5.073-1.912-8.83-6.971-4.083-5.499-9.676-13.029-20.874-13.029a7.5 7.5 0 000 15z"/><path d="M51.371 337.577c3.339 0 5.074 1.912 8.831 6.972 4.083 5.498 9.675 13.028 20.873 13.028 11.199 0 16.792-7.53 20.875-13.028 3.759-5.06 5.494-6.972 8.834-6.972s5.074 1.912 8.832 6.972c4.084 5.498 9.677 13.028 20.876 13.028 4.143 0 7.5-3.358 7.5-7.5s-3.357-7.5-7.5-7.5c-3.34 0-5.075-1.912-8.834-6.972-4.083-5.498-9.676-13.028-20.874-13.028-11.199 0-16.792 7.53-20.875 13.028-3.759 5.06-5.494 6.972-8.834 6.972-3.339 0-5.073-1.912-8.83-6.971-4.083-5.499-9.676-13.029-20.874-13.029a7.5 7.5 0 000 15zm279.783-187.554c4.143 0 7.5-3.358 7.5-7.5s-3.357-7.5-7.5-7.5H180.846c-4.143 0-7.5 3.358-7.5 7.5s3.357 7.5 7.5 7.5zM133.89 182.191a7.5 7.5 0 007.5 7.5h229.22c4.143 0 7.5-3.358 7.5-7.5s-3.357-7.5-7.5-7.5H141.39a7.5 7.5 0 00-7.5 7.5zm7.5 43.1h229.22c4.143 0 7.5-3.358 7.5-7.5s-3.357-7.5-7.5-7.5H141.39c-4.143 0-7.5 3.358-7.5 7.5s3.357 7.5 7.5 7.5z"/></g></svg>